<?xml version="1.0" encoding="UTF-8"?>
<svg id="Calque_1" data-name="Calque 1" xmlns="http://www.w3.org/2000/svg" xmlns:xlink="http://www.w3.org/1999/xlink" viewBox="0 0 207.29 59.24">
  <defs>
    <style>
      .cls-1 {
        fill: url(#New_Gradient_Swatch_copy_2);
      }

      .cls-2 {
        fill: url(#New_Gradient_Swatch_copy_2-8);
      }

      .cls-3 {
        fill: url(#New_Gradient_Swatch_copy_2-7);
      }

      .cls-4 {
        fill: url(#New_Gradient_Swatch_copy_2-6);
      }

      .cls-5 {
        fill: url(#New_Gradient_Swatch_copy_2-5);
      }

      .cls-6 {
        fill: url(#New_Gradient_Swatch_copy_2-4);
      }

      .cls-7 {
        fill: url(#New_Gradient_Swatch_copy_2-2);
      }

      .cls-8 {
        fill: url(#New_Gradient_Swatch_copy_2-3);
      }
    </style>
    <linearGradient id="New_Gradient_Swatch_copy_2" data-name="New Gradient Swatch copy 2" x1="53.8" y1="22.32" x2="166.32" y2="22.32" gradientUnits="userSpaceOnUse">
      <stop offset="0" stop-color="#081a40"/>
      <stop offset=".5" stop-color="#6315a9"/>
      <stop offset="1" stop-color="#f5247c"/>
    </linearGradient>
    <linearGradient id="New_Gradient_Swatch_copy_2-2" data-name="New Gradient Swatch copy 2" y1="31.46" y2="31.46" xlink:href="#New_Gradient_Swatch_copy_2"/>
    <linearGradient id="New_Gradient_Swatch_copy_2-3" data-name="New Gradient Swatch copy 2" y1="35.12" y2="35.12" xlink:href="#New_Gradient_Swatch_copy_2"/>
    <linearGradient id="New_Gradient_Swatch_copy_2-4" data-name="New Gradient Swatch copy 2" x1="71.75" y1="29.62" x2="131.71" y2="29.62" xlink:href="#New_Gradient_Swatch_copy_2"/>
    <linearGradient id="New_Gradient_Swatch_copy_2-5" data-name="New Gradient Swatch copy 2" x1="79.75" y1="29.62" x2="139.71" y2="29.62" xlink:href="#New_Gradient_Swatch_copy_2"/>
    <linearGradient id="New_Gradient_Swatch_copy_2-6" data-name="New Gradient Swatch copy 2" x1="87.75" y1="29.62" x2="147.71" y2="29.62" xlink:href="#New_Gradient_Swatch_copy_2"/>
    <linearGradient id="New_Gradient_Swatch_copy_2-7" data-name="New Gradient Swatch copy 2" x1="93.75" y1="29.62" x2="153.71" y2="29.62" xlink:href="#New_Gradient_Swatch_copy_2"/>
    <linearGradient id="New_Gradient_Swatch_copy_2-8" data-name="New Gradient Swatch copy 2" y1="29.62" y2="29.62" xlink:href="#New_Gradient_Swatch_copy_2"/>
  </defs>
  <g>
    <circle class="cls-1" cx="45" cy="22.32" r="2.75"/>
    <circle class="cls-7" cx="27.15" cy="31.46" r="6.31"/>
    <circle class="cls-8" cx="42.25" cy="35.12" r="4.55"/>
  </g>
  <path class="cls-6" d="M83.27,40.7c1.44-1.4,2.57-3.04,3.37-4.92.8-1.87,1.2-3.93,1.2-6.16s-.4-4.29-1.2-6.18c-.8-1.89-1.93-3.53-3.37-4.92-1.44-1.39-3.16-2.46-5.13-3.22-1.97-.76-4.12-1.14-6.44-1.14s-4.5.39-6.48,1.16-3.7,1.85-5.15,3.24c-1.46,1.39-2.59,3.02-3.4,4.89-.8,1.87-1.2,3.93-1.2,6.16s.4,4.24,1.2,6.12c.8,1.88,1.93,3.52,3.4,4.92,1.46,1.4,3.18,2.49,5.17,3.26,1.99.77,4.15,1.16,6.46,1.16s4.47-.38,6.44-1.14c1.98-.75,3.69-1.84,5.13-3.24ZM71.69,40.18c-1.52,0-2.93-.26-4.23-.77-1.3-.52-2.43-1.25-3.37-2.21-.94-.96-1.69-2.08-2.23-3.37-.55-1.29-.82-2.69-.82-4.21s.28-2.96.82-4.23c.54-1.28,1.29-2.39,2.23-3.35.95-.96,2.07-1.7,3.37-2.21,1.3-.52,2.71-.78,4.23-.78s2.91.26,4.19.78c1.28.52,2.39,1.24,3.35,2.19.96.95,1.7,2.06,2.21,3.35.52,1.29.77,2.71.77,4.25s-.26,2.96-.79,4.25c-.53,1.29-1.27,2.41-2.21,3.35-.95.94-2.05,1.67-3.33,2.19-1.28.52-2.67.77-4.19.77Z"/>
  <path class="cls-5" d="M115.13,34.6c1.9-.86,3.37-2.07,4.4-3.65,1.03-1.58,1.55-3.46,1.55-5.67s-.52-4.15-1.55-5.76c-1.03-1.6-2.5-2.83-4.4-3.67-1.9-.84-4.19-1.26-6.85-1.26h-12.36v30.06h5.58v-8.76h6.78c.4,0,.78-.03,1.16-.05l6.14,8.81h6.01l-6.92-9.88c.15-.06.31-.11.46-.17ZM113.58,20.88c1.25,1.05,1.86,2.51,1.86,4.4s-.62,3.36-1.86,4.42c-1.25,1.06-3.1,1.59-5.56,1.59h-6.52v-11.98h6.52c2.46,0,4.32.52,5.56,1.57Z"/>
  <rect class="cls-4" x="129.44" y="14.59" width="5.58" height="30.06"/>
  <path class="cls-3" d="M149.74,37.69h15.03l2.98,6.96h5.88l-13.57-30.06h-5.5l-13.53,30.06h5.71l2.99-6.96ZM157.27,20.16l5.63,13.16h-11.28l5.65-13.16Z"/>
  <circle class="cls-2" cx="181.89" cy="29.62" r="4.55"/>
</svg>