<?xml version="1.0" encoding="UTF-8"?>
<svg id="Calque_1" data-name="Calque 1" xmlns="http://www.w3.org/2000/svg" xmlns:xlink="http://www.w3.org/1999/xlink" viewBox="0 0 399.74 59.24">
  <defs>
    <style>
      .cls-1 {
        fill: #081a40;
      }

      .cls-2 {
        fill: url(#New_Gradient_Swatch_copy_2);
      }

      .cls-3 {
        fill: url(#New_Gradient_Swatch_copy_2-9);
      }

      .cls-4 {
        fill: url(#New_Gradient_Swatch_copy_2-8);
      }

      .cls-5 {
        fill: url(#New_Gradient_Swatch_copy_2-7);
      }

      .cls-6 {
        fill: url(#New_Gradient_Swatch_copy_2-6);
      }

      .cls-7 {
        fill: url(#New_Gradient_Swatch_copy_2-5);
      }

      .cls-8 {
        fill: url(#New_Gradient_Swatch_copy_2-4);
      }

      .cls-9 {
        fill: url(#New_Gradient_Swatch_copy_2-2);
      }

      .cls-10 {
        fill: url(#New_Gradient_Swatch_copy_2-3);
      }

      .cls-11 {
        fill: url(#New_Gradient_Swatch_copy_2-10);
      }
    </style>
    <linearGradient id="New_Gradient_Swatch_copy_2" data-name="New Gradient Swatch copy 2" x1="160.37" y1="29.59" x2="362.12" y2="29.59" gradientUnits="userSpaceOnUse">
      <stop offset="0" stop-color="#081a40"/>
      <stop offset=".5" stop-color="#6315a9"/>
      <stop offset="1" stop-color="#f5247c"/>
    </linearGradient>
    <linearGradient id="New_Gradient_Swatch_copy_2-2" data-name="New Gradient Swatch copy 2" x1="157" x2="358.75" xlink:href="#New_Gradient_Swatch_copy_2"/>
    <linearGradient id="New_Gradient_Swatch_copy_2-3" data-name="New Gradient Swatch copy 2" x1="153.81" y1="29.59" x2="355.56" y2="29.59" xlink:href="#New_Gradient_Swatch_copy_2"/>
    <linearGradient id="New_Gradient_Swatch_copy_2-4" data-name="New Gradient Swatch copy 2" x1="153.26" y1="29.59" x2="355" y2="29.59" xlink:href="#New_Gradient_Swatch_copy_2"/>
    <linearGradient id="New_Gradient_Swatch_copy_2-5" data-name="New Gradient Swatch copy 2" x1="152.7" y1="29.59" x2="354.44" y2="29.59" xlink:href="#New_Gradient_Swatch_copy_2"/>
    <linearGradient id="New_Gradient_Swatch_copy_2-6" data-name="New Gradient Swatch copy 2" x1="149.73" x2="351.48" xlink:href="#New_Gradient_Swatch_copy_2"/>
    <linearGradient id="New_Gradient_Swatch_copy_2-7" data-name="New Gradient Swatch copy 2" x1="144.06" x2="345.8" xlink:href="#New_Gradient_Swatch_copy_2"/>
    <linearGradient id="New_Gradient_Swatch_copy_2-8" data-name="New Gradient Swatch copy 2" x1="140.53" x2="342.28" xlink:href="#New_Gradient_Swatch_copy_2"/>
    <linearGradient id="New_Gradient_Swatch_copy_2-9" data-name="New Gradient Swatch copy 2" x1="137.35" y1="29.59" x2="339.09" y2="29.59" xlink:href="#New_Gradient_Swatch_copy_2"/>
    <linearGradient id="New_Gradient_Swatch_copy_2-10" data-name="New Gradient Swatch copy 2" x1="134.38" x2="336.13" xlink:href="#New_Gradient_Swatch_copy_2"/>
  </defs>
  <g>
    <g>
      <circle class="cls-1" cx="42.87" cy="23.4" r="2.34"/>
      <circle class="cls-1" cx="27.64" cy="31.19" r="5.38"/>
      <circle class="cls-1" cx="40.52" cy="34.31" r="3.88"/>
    </g>
    <g>
      <path class="cls-1" d="M75.5,20.16c-1.23-1.19-2.69-2.1-4.38-2.75-1.68-.65-3.51-.97-5.49-.97s-3.84.33-5.53.99c-1.69.66-3.15,1.58-4.39,2.76-1.25,1.19-2.21,2.57-2.9,4.17-.68,1.6-1.02,3.35-1.02,5.26s.34,3.62,1.02,5.22c.68,1.6,1.65,3,2.9,4.19,1.24,1.2,2.71,2.12,4.41,2.78,1.7.66,3.54.99,5.51.99s3.81-.32,5.49-.97c1.69-.64,3.15-1.57,4.38-2.76,1.23-1.2,2.19-2.6,2.88-4.19.68-1.6,1.02-3.35,1.02-5.25s-.34-3.66-1.02-5.27c-.68-1.61-1.64-3.01-2.88-4.19ZM73.92,33.24c-.45,1.1-1.08,2.05-1.89,2.86-.81.8-1.75,1.43-2.84,1.87-1.09.44-2.28.66-3.57.66s-2.5-.22-3.61-.66c-1.11-.44-2.07-1.07-2.88-1.88-.8-.82-1.44-1.78-1.9-2.88-.46-1.1-.7-2.29-.7-3.59s.23-2.52.7-3.61c.46-1.09,1.1-2.04,1.9-2.86.81-.82,1.77-1.45,2.88-1.89,1.11-.44,2.31-.66,3.61-.66s2.48.22,3.57.66c1.09.44,2.04,1.06,2.85,1.87.82.81,1.45,1.76,1.89,2.86.44,1.1.66,2.31.66,3.63s-.22,2.52-.67,3.62Z"/>
      <path class="cls-1" d="M102.67,33.87c1.62-.73,2.87-1.77,3.75-3.11.88-1.34,1.32-2.95,1.32-4.83s-.44-3.54-1.32-4.91c-.88-1.36-2.13-2.41-3.75-3.13-1.62-.72-3.57-1.08-5.84-1.08h-10.54v25.63h4.76v-7.47h5.78c.34,0,.66-.02.99-.04l5.24,7.51h5.13l-5.9-8.42c.13-.05.27-.09.39-.15ZM101.35,29.69c-1.06.9-2.65,1.35-4.75,1.35h-5.56v-10.21h5.56c2.1,0,3.68.45,4.75,1.34,1.06.89,1.59,2.14,1.59,3.75s-.53,2.87-1.59,3.77Z"/>
      <rect class="cls-1" x="114.88" y="16.81" width="4.76" height="25.63"/>
      <path class="cls-1" d="M136.3,16.81l-11.53,25.63h4.87l2.55-5.93h12.82l2.54,5.93h5.02l-11.57-25.63h-4.69ZM133.79,32.77l4.82-11.22,4.8,11.22h-9.62Z"/>
    </g>
  </g>
  <g>
    <path class="cls-2" d="M174.79,29.74c-.58-.24-1.22-.41-1.9-.54.21-.07.42-.13.62-.22,1.17-.48,2.09-1.2,2.76-2.17.67-.96,1-2.15,1-3.56,0-2.15-.79-3.79-2.37-4.93-1.58-1.14-3.77-1.71-6.56-1.71h-10.82v25.94h11.56c3.21,0,5.61-.6,7.19-1.8,1.58-1.2,2.37-2.88,2.37-5.06,0-1.48-.33-2.72-.98-3.71-.66-.99-1.61-1.74-2.87-2.26ZM168.26,18.25c2.25,0,3.99.43,5.23,1.3,1.23.87,1.85,2.15,1.85,3.86s-.62,3.02-1.85,3.89c-1.24.87-2.98,1.3-5.23,1.3h-8.86v-10.34h8.86ZM174.79,39.66c-1.31.85-3.21,1.28-5.71,1.28h-9.67v-10.71h9.67c2.49,0,4.4.43,5.71,1.28,1.31.85,1.96,2.2,1.96,4.06s-.65,3.24-1.96,4.09Z"/>
    <rect class="cls-9" x="183.86" y="16.62" width="1.89" height="25.94"/>
    <path class="cls-10" d="M214.1,20.18c-1.21-1.18-2.64-2.1-4.28-2.76-1.64-.65-3.43-.98-5.35-.98s-3.71.33-5.36.98c-1.64.66-3.08,1.58-4.3,2.78-1.22,1.2-2.17,2.59-2.83,4.19-.67,1.59-1,3.33-1,5.21s.34,3.61,1,5.21c.67,1.59,1.61,2.99,2.83,4.19,1.22,1.2,2.66,2.12,4.3,2.78,1.64.65,3.43.98,5.36.98s3.71-.33,5.35-.98c1.64-.65,3.07-1.57,4.28-2.76,1.21-1.18,2.16-2.57,2.84-4.17.68-1.59,1.02-3.34,1.02-5.24s-.34-3.65-1.02-5.24c-.68-1.59-1.63-2.98-2.84-4.17ZM215.16,34.11c-.58,1.39-1.39,2.6-2.43,3.63-1.04,1.03-2.26,1.84-3.67,2.41-1.41.57-2.94.85-4.59.85s-3.19-.28-4.6-.85c-1.41-.57-2.64-1.37-3.69-2.41-1.05-1.04-1.87-2.25-2.45-3.63-.58-1.38-.87-2.89-.87-4.52s.29-3.17.87-4.54c.58-1.37,1.39-2.57,2.45-3.61,1.05-1.04,2.28-1.84,3.69-2.41,1.41-.57,2.94-.85,4.6-.85s3.19.28,4.59.85c1.41.57,2.63,1.37,3.67,2.41,1.04,1.04,1.85,2.24,2.43,3.61.58,1.37.87,2.88.87,4.54s-.29,3.14-.87,4.52Z"/>
    <path class="cls-8" d="M238.74,30.63c-.96-.49-2.01-.9-3.15-1.2-1.14-.31-2.28-.6-3.45-.87-1.16-.27-2.22-.61-3.18-1-.96-.4-1.74-.93-2.32-1.59-.58-.67-.87-1.56-.87-2.67,0-.96.26-1.84.78-2.61.52-.78,1.32-1.4,2.41-1.87,1.09-.47,2.46-.71,4.11-.71,1.16,0,2.37.18,3.61.54,1.25.36,2.41.91,3.5,1.65l.71-1.52c-.99-.72-2.18-1.29-3.58-1.71-1.4-.42-2.81-.63-4.24-.63-2.12,0-3.87.32-5.23.96-1.36.64-2.36,1.48-3,2.52-.64,1.04-.96,2.17-.96,3.41,0,1.36.29,2.47.87,3.32.58.85,1.35,1.53,2.32,2.02.96.49,2.03.9,3.19,1.2,1.16.31,2.31.6,3.45.87,1.13.27,2.18.6,3.15,1,.96.4,1.74.93,2.33,1.59.6.67.89,1.56.89,2.67,0,.94-.26,1.79-.8,2.55-.53.77-1.35,1.38-2.45,1.84-1.1.46-2.52.69-4.24.69s-3.37-.32-4.91-.95c-1.54-.63-2.76-1.4-3.65-2.32l-.85,1.41c.94,1.04,2.27,1.88,3.98,2.54,1.72.65,3.54.98,5.47.98,2.15,0,3.91-.31,5.28-.94,1.37-.63,2.39-1.47,3.06-2.52.67-1.05,1-2.18,1-3.39,0-1.33-.29-2.42-.89-3.26-.59-.84-1.37-1.51-2.33-2Z"/>
    <path class="cls-7" d="M252.4,21.44c1.05-1.04,2.29-1.84,3.7-2.41,1.42-.57,2.96-.85,4.61-.85,1.51,0,2.93.24,4.28.72,1.35.48,2.57,1.27,3.69,2.35l1.19-1.23c-1.14-1.21-2.5-2.11-4.09-2.7-1.59-.59-3.3-.89-5.13-.89-1.93,0-3.7.33-5.34.98-1.63.66-3.06,1.58-4.28,2.76-1.22,1.19-2.17,2.57-2.83,4.17-.67,1.59-1,3.34-1,5.24s.34,3.65,1,5.24c.67,1.59,1.61,2.98,2.81,4.17,1.21,1.19,2.64,2.11,4.28,2.76,1.64.65,3.43.98,5.35.98s3.54-.3,5.13-.9c1.59-.6,2.96-1.51,4.09-2.72l-1.19-1.23c-1.11,1.11-2.34,1.91-3.69,2.39-1.35.48-2.77.72-4.28.72-1.65,0-3.19-.28-4.61-.85-1.42-.57-2.65-1.37-3.7-2.41-1.05-1.04-1.87-2.25-2.45-3.63-.58-1.38-.87-2.89-.87-4.52s.29-3.14.87-4.52c.58-1.38,1.39-2.59,2.45-3.63Z"/>
    <rect class="cls-6" x="275.09" y="16.62" width="1.89" height="25.94"/>
    <polygon class="cls-5" points="284.09 30.22 297.91 30.22 297.91 28.56 284.09 28.56 284.09 18.33 299.55 18.33 299.55 16.62 282.2 16.62 282.2 42.56 300.1 42.56 300.1 40.86 284.09 40.86 284.09 30.22"/>
    <polygon class="cls-4" points="324.56 39.14 306.92 16.62 305.32 16.62 305.32 42.56 307.21 42.56 307.21 20.04 324.89 42.56 326.45 42.56 326.45 16.62 324.56 16.62 324.56 39.14"/>
    <path class="cls-3" d="M336.88,21.44c1.05-1.04,2.28-1.84,3.7-2.41,1.42-.57,2.96-.85,4.61-.85,1.51,0,2.93.24,4.28.72,1.35.48,2.57,1.27,3.69,2.35l1.19-1.23c-1.14-1.21-2.5-2.11-4.09-2.7-1.59-.59-3.3-.89-5.13-.89-1.93,0-3.7.33-5.34.98-1.63.66-3.06,1.58-4.28,2.76-1.22,1.19-2.17,2.57-2.83,4.17-.67,1.59-1,3.34-1,5.24s.34,3.65,1,5.24,1.61,2.98,2.81,4.17c1.21,1.19,2.64,2.11,4.28,2.76,1.64.65,3.43.98,5.35.98s3.54-.3,5.13-.9c1.59-.6,2.96-1.51,4.09-2.72l-1.19-1.23c-1.11,1.11-2.34,1.91-3.69,2.39-1.35.48-2.77.72-4.28.72-1.65,0-3.19-.28-4.61-.85-1.42-.57-2.65-1.37-3.7-2.41-1.05-1.04-1.87-2.25-2.45-3.63-.58-1.38-.87-2.89-.87-4.52s.29-3.14.87-4.52c.58-1.38,1.39-2.59,2.45-3.63Z"/>
    <polygon class="cls-11" points="361.46 40.86 361.46 30.22 375.29 30.22 375.29 28.56 361.46 28.56 361.46 18.33 376.92 18.33 376.92 16.62 359.57 16.62 359.57 42.56 377.47 42.56 377.47 40.86 361.46 40.86"/>
  </g>
</svg>